<?xml version="1.0" standalone="no"?>
<!DOCTYPE svg PUBLIC "-//W3C//DTD SVG 20010904//EN"
 "http://www.w3.org/TR/2001/REC-SVG-20010904/DTD/svg10.dtd">
<svg version="1.0" xmlns="http://www.w3.org/2000/svg"
 width="512.000000pt" height="512.000000pt" viewBox="0 0 512.000000 512.000000"
 preserveAspectRatio="xMidYMid meet">

<g transform="translate(0.000000,512.000000) scale(0.100000,-0.100000)"
fill="#000000" stroke="none">
<path d="M1832 4994 c-79 -39 -125 -108 -137 -207 l-7 -57 -162 0 c-88 0 -190
-5 -226 -10 -157 -25 -270 -123 -326 -283 -12 -33 -14 -257 -14 -1391 l0
-1351 187 -187 c110 -110 196 -188 206 -188 14 0 17 -5 13 -17 -4 -9 -166
-267 -361 -574 -195 -306 -355 -565 -355 -576 0 -11 8 -27 18 -36 16 -15 53
-17 315 -17 232 0 298 3 309 13 7 8 24 37 37 65 l24 52 1208 0 1208 0 26 -57
c14 -32 31 -61 38 -65 7 -4 145 -8 308 -8 282 0 297 1 314 20 10 11 16 29 13
42 -2 13 -163 273 -357 578 -194 305 -355 560 -358 567 -3 8 2 13 14 13 10 0
96 78 206 188 l187 188 0 1351 c0 1491 4 1391 -62 1496 -59 93 -161 158 -278
177 -36 5 -138 10 -226 10 l-161 0 -7 58 c-9 81 -56 157 -120 197 l-49 30
-686 3 -686 2 -53 -26z m2015 -399 c64 -19 143 -88 175 -153 l23 -47 3 -802 3
-803 -1491 0 -1490 0 2 798 3 797 24 53 c30 66 107 137 170 156 71 22 2504 23
2578 1z m-1869 -2231 c168 -83 203 -308 67 -433 -59 -54 -106 -73 -185 -73
-204 -2 -333 217 -232 395 52 92 128 136 238 137 45 0 73 -6 112 -26z m1364
16 c89 -25 173 -129 185 -227 8 -68 -17 -148 -63 -201 -107 -126 -295 -128
-403 -5 -181 205 16 506 281 433z m-32 -1126 c16 -37 30 -68 30 -70 0 -2 -351
-4 -780 -4 -429 0 -780 2 -780 4 0 2 14 34 31 70 l31 66 719 0 719 0 30 -66z
m-1610 51 c0 -5 -76 -176 -267 -600 -52 -115 -122 -272 -155 -348 l-61 -137
-194 0 c-111 0 -193 4 -191 9 2 5 156 250 343 545 l340 536 93 0 c50 0 92 -2
92 -5z m2248 -534 c188 -296 342 -542 342 -545 0 -3 -87 -6 -193 -6 l-192 0
-240 536 c-132 294 -241 539 -243 545 -2 5 36 9 90 9 l93 0 343 -539z m-534
243 c14 -31 26 -60 26 -65 0 -5 -381 -9 -880 -9 -484 0 -880 3 -880 6 0 4 12
33 26 65 l27 59 828 0 828 0 25 -56z m118 -254 l26 -60 -994 0 c-677 0 -994 3
-994 10 0 6 11 33 25 60 l25 50 943 0 942 0 27 -60z m126 -293 l51 -112 -574
-3 c-316 -1 -833 -1 -1149 0 l-574 3 50 113 51 112 1047 0 1047 0 51 -113z"/>
<path d="M1316 4358 c-14 -20 -16 -88 -16 -541 l0 -519 29 -27 c37 -35 286
-158 415 -206 123 -45 329 -98 466 -120 163 -25 438 -31 604 -11 321 37 622
133 888 282 54 30 102 64 108 74 6 12 10 206 10 532 0 449 -2 516 -16 536
l-15 22 -1229 0 -1229 0 -15 -22z m1184 -653 l0 -555 -32 7 c-160 30 -294 83
-422 166 -295 193 -490 522 -519 875 l-5 62 489 0 489 0 0 -555z m1200 116 l0
-438 -62 -19 c-48 -14 -93 -19 -188 -18 -109 0 -135 4 -202 27 -182 63 -331
193 -413 360 -58 119 -75 208 -75 387 l0 140 470 0 470 0 0 -439z"/>
</g>
</svg>
